# xmcd
#
# Track frame offsets: 
#        150
#        67714
#        111321
#        190702
#
# Disc length: 3231 seconds
#
# Revision: 0
# Processed by: cddbd v1.5.2PL0 Copyright (c) Steve Scherf et al.
# Submitted via: ExactAudioCopy v1.3
#
DISCID=2b0c9d04
DTITLE=Various Artist - American Country Countdown with Kix Brooks, S
DTITLE=how 2009-31 Hour #2
DYEAR=2009
DGENRE=Hick 'ic
TTITLE0=Segment 05
TTITLE1=Segment 06
TTITLE2=Segment 07
TTITLE3=Segment 08
EXTD=
EXTT0=
EXTT1=
EXTT2=
EXTT3=
PLAYORDER=
